<svg width="256" height="257" viewBox="0 0 256 257" fill="none" xmlns="http://www.w3.org/2000/svg">
<rect y="0.239258" width="256" height="256" rx="128" fill="#F7931A"/>
<path d="M188.915 112.357C191.463 95.3253 178.493 86.1693 160.76 80.0613L166.512 56.9893L152.467 53.4893L146.866 75.9533C143.174 75.0333 139.381 74.1653 135.613 73.3053L141.253 50.6933L127.216 47.1933L121.459 70.2573C118.403 69.5613 115.403 68.8733 112.49 68.1493L112.506 68.0773L93.1363 63.2413L89.3999 78.2413C89.3999 78.2413 99.821 80.6293 99.601 80.7773C105.29 82.1973 106.318 85.9613 106.146 88.9453L99.593 115.229C99.985 115.329 100.493 115.473 101.053 115.697C100.585 115.581 100.085 115.453 99.569 115.329L90.384 152.149C89.6879 153.877 87.9238 156.469 83.9473 155.485C84.0873 155.689 73.7382 152.937 73.7382 152.937L66.7655 169.013L85.0435 173.569C88.4438 174.421 91.7762 175.313 95.0565 176.153L89.2439 199.489L103.273 202.989L109.03 179.901C112.862 180.941 116.583 181.901 120.223 182.805L114.487 205.785L128.532 209.285L134.345 185.993C158.295 190.525 176.305 188.697 183.886 167.037C189.995 149.597 183.582 139.537 170.981 132.977C180.158 130.861 187.07 124.825 188.915 112.357ZM156.823 157.353C152.483 174.793 123.116 165.365 113.594 163.001L121.307 132.085C130.828 134.461 161.36 139.165 156.823 157.353ZM161.168 112.105C157.207 127.969 132.765 119.909 124.836 117.933L131.828 89.8933C139.757 91.8693 165.292 95.5573 161.168 112.105Z" fill="white"/>
</svg>
