<svg width="256" height="257" viewBox="0 0 256 257" fill="none" xmlns="http://www.w3.org/2000/svg">
<rect y="0.239319" width="256" height="256" rx="128" fill="#F5AC37"/>
<path d="M133.99 137.258H182.415C183.447 137.258 183.935 137.258 184.009 135.905C184.405 130.979 184.405 126.024 184.009 121.092C184.009 120.134 183.533 119.738 182.495 119.738H86.121C84.9281 119.738 84.607 120.134 84.607 121.252V135.429C84.607 137.258 84.607 137.258 86.5167 137.258H133.99ZM178.601 103.17C178.739 102.809 178.739 102.413 178.601 102.058C177.793 100.297 176.835 98.6169 175.722 97.0398C174.048 94.3444 172.075 91.8612 169.827 89.6304C168.766 88.2827 167.539 87.0726 166.162 86.0461C159.269 80.1793 151.074 76.0273 142.265 73.9398C137.821 72.9419 133.279 72.4659 128.725 72.5061H85.9547C84.7618 72.5061 84.6013 72.9821 84.6013 74.0201V102.293C84.6013 103.486 84.6013 103.807 86.1153 103.807H178.028C178.028 103.807 178.825 103.646 178.986 103.17H178.596H178.601ZM178.601 153.826C177.248 153.677 175.883 153.677 174.53 153.826H86.2013C85.0084 153.826 84.607 153.826 84.607 155.421V183.063C84.607 184.336 84.607 184.657 86.2013 184.657H126.982C128.932 184.806 130.882 184.668 132.791 184.261C138.71 183.837 144.531 182.552 150.082 180.436C152.101 179.736 154.05 178.825 155.891 177.729H156.448C166.008 172.757 173.773 164.946 178.67 155.358C178.67 155.358 179.226 154.153 178.601 153.838V153.826ZM68.601 198.988V198.512V179.954V173.663V154.945C68.601 153.907 68.601 153.752 67.3279 153.752H50.043C49.0853 153.752 48.6896 153.752 48.6896 152.479V137.344H67.1673C68.1996 137.344 68.601 137.344 68.601 135.991V121.017C68.601 120.06 68.601 119.824 67.3279 119.824H50.043C49.0853 119.824 48.6896 119.824 48.6896 118.551V104.535C48.6896 103.658 48.6896 103.423 49.9627 103.423H67.087C68.2799 103.423 68.601 103.423 68.601 101.909V58.9776C68.601 57.7044 68.601 57.3833 70.1953 57.3833H129.93C134.265 57.5553 138.572 58.0313 142.833 58.817C151.613 60.4399 160.049 63.5769 167.762 68.0558C172.878 71.0666 177.586 74.7025 181.778 78.889C184.933 82.1636 187.777 85.7077 190.3 89.4813C192.807 93.3064 194.888 97.3954 196.523 101.668C196.723 102.78 197.79 103.532 198.903 103.342H213.16C214.989 103.342 214.989 103.342 215.069 105.097V118.161C215.069 119.434 214.593 119.756 213.314 119.756H202.321C201.208 119.756 200.887 119.756 200.967 121.189C201.403 126.041 201.403 130.91 200.967 135.762C200.967 137.115 200.967 137.276 202.487 137.276H215.064C215.62 137.992 215.064 138.709 215.064 139.432C215.144 140.355 215.144 141.29 215.064 142.213V151.854C215.064 153.207 214.668 153.608 213.469 153.608H198.415C197.366 153.408 196.345 154.079 196.104 155.122C192.52 164.442 186.785 172.797 179.376 179.496C176.669 181.933 173.824 184.227 170.854 186.343C167.665 188.178 164.562 190.088 161.294 191.602C155.278 194.309 148.969 196.304 142.495 197.572C136.347 198.673 130.113 199.172 123.856 199.086H68.5781V199.006L68.601 198.988Z" fill="#FEFEFD"/>
</svg>
