<svg width="256" height="257" viewBox="0 0 256 257" fill="none" xmlns="http://www.w3.org/2000/svg">
<rect y="0.239258" width="256" height="256" rx="128" fill="#2775CA"/>
<path d="M163.2 146.906C163.2 128.239 152 121.839 129.6 119.173C113.6 117.039 110.4 112.773 110.4 105.306C110.4 97.838 115.734 93.0393 126.4 93.0393C136 93.0393 141.334 96.2393 144 104.239C144.534 105.839 146.134 106.906 147.734 106.906H156.266C158.4 106.906 160 105.306 160 103.173V102.639C157.866 90.9055 148.266 81.8393 136 80.773V67.973C136 65.8393 134.4 64.2393 131.734 63.7055H123.734C121.6 63.7055 120 65.3055 119.466 67.973V80.2393C103.466 82.373 93.3338 93.0393 93.3338 106.373C93.3338 123.973 104 130.906 126.4 133.573C141.334 136.239 146.134 139.439 146.134 147.973C146.134 156.507 138.666 162.373 128.534 162.373C114.666 162.373 109.866 156.506 108.266 148.506C107.734 146.373 106.134 145.306 104.534 145.306H95.4662C93.3338 145.306 91.7338 146.906 91.7338 149.039V149.573C93.8662 162.906 102.4 172.506 120 175.173V187.973C120 190.106 121.6 191.706 124.266 192.239H132.266C134.4 192.239 136 190.639 136.534 187.973V175.173C152.534 172.506 163.2 161.306 163.2 146.906Z" fill="white"/>
<path d="M100.8 202.906C59.2 187.973 37.8663 141.573 53.3338 100.506C61.3338 78.1055 78.9338 61.0393 100.8 53.0393C102.934 51.9731 104 50.3731 104 47.7055V40.2393C104 38.1055 102.934 36.5055 100.8 35.9731C100.266 35.9731 99.2 35.973 98.6663 36.5055C48 52.5055 20.2663 106.373 36.2663 157.039C45.8663 186.906 68.8 209.839 98.6663 219.439C100.8 220.506 102.934 219.439 103.466 217.306C104 216.773 104 216.239 104 215.173V207.706C104 206.106 102.4 203.973 100.8 202.906ZM157.334 36.5055C155.2 35.4393 153.066 36.5055 152.534 38.6393C152 39.1731 152 39.7055 152 40.7731V48.2393C152 50.3731 153.6 52.5055 155.2 53.5731C196.8 68.5055 218.134 114.906 202.666 155.973C194.666 178.373 177.066 195.439 155.2 203.439C153.066 204.506 152 206.106 152 208.773V216.239C152 218.373 153.066 219.973 155.2 220.506C155.734 220.506 156.8 220.506 157.334 219.973C208 203.973 235.734 150.106 219.734 99.4393C210.134 69.0393 186.666 46.1055 157.334 36.5055Z" fill="white"/>
</svg>
