<svg width="256" height="257" viewBox="0 0 256 257" fill="none" xmlns="http://www.w3.org/2000/svg">
<rect y="0.239258" width="256" height="256" rx="128" fill="#53AE94"/>
<path d="M143.793 108.741V89.6998H187.336V60.6873H68.7668V89.6998H112.315V108.726C76.923 110.351 50.3118 117.361 50.3118 125.757C50.3118 134.154 76.9358 141.163 112.315 142.799V203.791H143.803V142.794C179.131 141.163 205.688 134.159 205.688 125.77C205.688 117.381 179.131 110.377 143.803 108.746M143.803 137.628V137.613C142.915 137.669 138.35 137.943 128.187 137.943C120.062 137.943 114.345 137.713 112.33 137.608V137.633C81.0625 136.248 57.723 130.803 57.723 124.288C57.723 117.773 81.065 112.335 112.33 110.948V132.209C114.378 132.349 120.236 132.695 128.32 132.695C138.03 132.695 142.912 132.29 143.808 132.209V110.948C175.014 112.338 198.3 117.788 198.3 124.28C198.3 130.772 175.004 136.225 143.808 137.615" fill="white"/>
</svg>
